<?xml version="1.0" encoding="utf-8"?>
<svg version="1.1" xmlns="http://www.w3.org/2000/svg" xmlns:xlink="http://www.w3.org/1999/xlink" x="0px" y="0px" viewBox="0 0 1000 1000" style="enable-background:new 0 0 1000 1000;" xml:space="preserve">
<style type="text/css">
	.st0{fill:#FF6B6B;}
</style>
<path class="st0" d="M500,0C223.9,0,0,223.9,0,500s223.9,500,500,500s500-223.9,500-500S776.1,0,500,0z M500,947.4
	C252.9,947.4,52.6,747.1,52.6,500C52.6,252.9,252.9,52.6,500,52.6c247.1,0,447.4,200.3,447.4,447.4
	C947.4,747.1,747.1,947.4,500,947.4z M500,157.9c-188.9,0-342.1,153.2-342.1,342.1S311.1,842.1,500,842.1S842.1,688.9,842.1,500
	S688.9,157.9,500,157.9z M500,789.5c-159.8,0-289.5-129.7-289.5-289.5S340.2,210.5,500,210.5S789.5,340.2,789.5,500
	S659.8,789.5,500,789.5z M500,315.8c-101.7,0-184.2,82.5-184.2,184.2S398.3,684.2,500,684.2S684.2,601.7,684.2,500
	S601.7,315.8,500,315.8z M500,631.6c-72.6,0-131.6-59-131.6-131.6s59-131.6,131.6-131.6s131.6,59,131.6,131.6S572.6,631.6,500,631.6z
	 M500,421.1c-43.6,0-78.9,35.4-78.9,78.9s35.4,78.9,78.9,78.9s78.9-35.4,78.9-78.9S543.6,421.1,500,421.1z"/>
</svg> 